# xmcd CD database file
#
# Track frame offsets:
#	150
#	37673
#	70073
#	108521
#	164009
#	208121
#	259625
#
# Disc length: 4202 seconds
#
# Revision: 0
# Processed by: cddbd v1.5.2PL0 Copyright (c) Steve Scherf et al.
# Submitted via: CDex 1.70beta2
#
DISCID=5b106807
DTITLE=Kenny Barron - Live at Fat Tuesdays
DYEAR=1988
DGENRE=Jazz
TTITLE0=There is no Greater Love
TTITLE1=Misterioso
TTITLE2=Lunacy
TTITLE3=Sand Dune
TTITLE4=518
TTITLE5=Something for Ramone
TTITLE6=Dreams
EXTD=YEAR: 1988
EXTT0=
EXTT1=
EXTT2=
EXTT3=
EXTT4=
EXTT5=
EXTT6=
PLAYORDER=
